# xmcd
#
# Track frame offsets:
#	150
#	13822
#	26454
#	41179
#	55843
#	68801
#	81134
#	92741
#	106419
#	119973
#	132529
#	144053
#	155190
#	167415
#	180415
#	194312
#	207448
#	221782
#	236138
#	251398
#	264219
#	276034
#	287835
#	299582
#	315500
#
# Disc length: 4376 seconds
#
# Revision: 1
# Processed by: cddbd v1.5.2PL0 Copyright (c) Steve Scherf et al.
# Submitted via: audiograbber 1.83.01
#
DISCID=7c111619
DTITLE=Cliff Carlisle - Cliff Carlisle - Vol.2 - When I Feel Froggie I'm Gonna 
DTITLE=Hop - CD 3
DYEAR=2006
DGENRE=Country
TTITLE0=Traveling Life Alone
TTITLE1=Ramshackled Shack on the Hill
TTITLE2=Don't Marry the Wrong Woman
TTITLE3=Sunshine and Daisies
TTITLE4=Georgia Moon
TTITLE5=Dollar's All I Crave
TTITLE6=On the Lone Prairie
TTITLE7=The Bunch of Cactus on the Wall
TTITLE8=Casey County Jail
TTITLE9=Valley of Peace
TTITLE10=Will You Meet Me Just Inside
TTITLE11=Jesus, My All
TTITLE12=Won't Somebody Pal with Me
TTITLE13=Sweet Nannie Lisle
TTITLE14=Hen Pecked Man
TTITLE15=So Blue
TTITLE16=Look Out, I'm Shifting Gears
TTITLE17=In a Box Car Around the World
TTITLE18=Two Little Sweethearts
TTITLE19=A Little White Rose
TTITLE20=The Flower of the Valley
TTITLE21=Just a Song At Childhood
TTITLE22=They Say It Is the End of the Trail, Old Paint
TTITLE23=My Old Saddle Horse Is Missing
TTITLE24=That Good Old Utah Trail
EXTD=JSP 7768 - CD 3
EXTT0=
EXTT1=
EXTT2=
EXTT3=
EXTT4=
EXTT5=
EXTT6=
EXTT7=
EXTT8=
EXTT9=
EXTT10=
EXTT11=
EXTT12=
EXTT13=
EXTT14=
EXTT15=
EXTT16=
EXTT17=
EXTT18=
EXTT19=
EXTT20=
EXTT21=
EXTT22=
EXTT23=
EXTT24=
PLAYORDER=
